<?xml version="1.0" encoding="utf-8"?>
<svg version="1.1" xmlns:xlink="http://www.w3.org/1999/xlink" width="19px" height="17px" xmlns="http://www.w3.org/2000/svg">
  <defs>
    <mask fill="white" id="clip1172">
      <path d="M 18.9091400417892 0.43555470706616  C 18.9091400417892 0.228828879366603  18.7477742229687 0.0664014433167779  18.5423995444698 0.0664014433167779  L 0.366740497319408 0.0664014433167779  C 0.161365818820501 0.0664014433167779  0 0.228828879366603  0 0.43555470706616  L 0 13.0605963272868  C 0 13.2673221549864  0.161365818820501 13.4297495910362  0.366740497319408 13.4297495910362  L 18.5423995444698 13.4297495910362  C 18.7477742229687 13.4297495910362  18.9091400417892 13.2673221549864  18.9091400417892 13.0605963272868  L 18.9091400417892 0.43555470706616  Z M 0.733480994638815 0.804707970815059  L 18.1756590471504 0.804707970815059  L 18.1756590471504 9.76774921464445  L 0.733480994638815 9.76774921464445  L 0.733480994638815 0.804707970815059  Z M 18.1756590471504 12.6914430635379  L 0.733480994638815 12.6914430635379  L 0.733480994638815 10.5060557421427  L 18.1756590471504 10.5060557421427  L 18.1756590471504 12.6914430635379  Z M 6.96806944906899 14.9358949071324  L 11.9410705927202 14.9358949071324  C 12.1464452712191 14.9358949071324  12.3078110900396 14.7734674710831  12.3078110900396 14.5667416433835  C 12.3078110900396 14.360015815684  12.1464452712191 14.1975883796341  11.9410705927202 14.1975883796341  L 6.96806944906899 14.1975883796341  C 6.76269477057008 14.1975883796341  6.60132895174958 14.360015815684  6.60132895174958 14.5667416433835  C 6.60132895174958 14.7734674710831  6.76269477057008 14.9358949071324  6.96806944906899 14.9358949071324  Z M 15.1390477293454 16.0581208289302  C 15.1390477293454 15.8513950012306  14.9630122906323 15.6889675651808  14.772307232026 15.6889675651808  L 4.13683280976294 15.6889675651808  C 3.93145813126403 15.6889675651808  3.77009231244353 15.8513950012306  3.77009231244353 16.0581208289302  C 3.77009231244353 16.2648466566297  3.93145813126403 16.4272740926791  4.13683280976294 16.4272740926791  L 14.772307232026 16.4272740926791  C 14.9776819105249 16.4272740926791  15.1390477293454 16.2648466566297  15.1390477293454 16.0581208289302  Z " fill-rule="evenodd" />
    </mask>
  </defs>
  <g transform="matrix(1 0 0 1 -314 -17 )">
    <path d="M 18.9091400417892 0.43555470706616  C 18.9091400417892 0.228828879366603  18.7477742229687 0.0664014433167779  18.5423995444698 0.0664014433167779  L 0.366740497319408 0.0664014433167779  C 0.161365818820501 0.0664014433167779  0 0.228828879366603  0 0.43555470706616  L 0 13.0605963272868  C 0 13.2673221549864  0.161365818820501 13.4297495910362  0.366740497319408 13.4297495910362  L 18.5423995444698 13.4297495910362  C 18.7477742229687 13.4297495910362  18.9091400417892 13.2673221549864  18.9091400417892 13.0605963272868  L 18.9091400417892 0.43555470706616  Z M 0.733480994638815 0.804707970815059  L 18.1756590471504 0.804707970815059  L 18.1756590471504 9.76774921464445  L 0.733480994638815 9.76774921464445  L 0.733480994638815 0.804707970815059  Z M 18.1756590471504 12.6914430635379  L 0.733480994638815 12.6914430635379  L 0.733480994638815 10.5060557421427  L 18.1756590471504 10.5060557421427  L 18.1756590471504 12.6914430635379  Z M 6.96806944906899 14.9358949071324  L 11.9410705927202 14.9358949071324  C 12.1464452712191 14.9358949071324  12.3078110900396 14.7734674710831  12.3078110900396 14.5667416433835  C 12.3078110900396 14.360015815684  12.1464452712191 14.1975883796341  11.9410705927202 14.1975883796341  L 6.96806944906899 14.1975883796341  C 6.76269477057008 14.1975883796341  6.60132895174958 14.360015815684  6.60132895174958 14.5667416433835  C 6.60132895174958 14.7734674710831  6.76269477057008 14.9358949071324  6.96806944906899 14.9358949071324  Z M 15.1390477293454 16.0581208289302  C 15.1390477293454 15.8513950012306  14.9630122906323 15.6889675651808  14.772307232026 15.6889675651808  L 4.13683280976294 15.6889675651808  C 3.93145813126403 15.6889675651808  3.77009231244353 15.8513950012306  3.77009231244353 16.0581208289302  C 3.77009231244353 16.2648466566297  3.93145813126403 16.4272740926791  4.13683280976294 16.4272740926791  L 14.772307232026 16.4272740926791  C 14.9776819105249 16.4272740926791  15.1390477293454 16.2648466566297  15.1390477293454 16.0581208289302  Z " fill-rule="nonzero" fill="#000000" stroke="none" transform="matrix(1 0 0 1 314 17 )" />
    <path d="M 18.9091400417892 0.43555470706616  C 18.9091400417892 0.228828879366603  18.7477742229687 0.0664014433167779  18.5423995444698 0.0664014433167779  L 0.366740497319408 0.0664014433167779  C 0.161365818820501 0.0664014433167779  0 0.228828879366603  0 0.43555470706616  L 0 13.0605963272868  C 0 13.2673221549864  0.161365818820501 13.4297495910362  0.366740497319408 13.4297495910362  L 18.5423995444698 13.4297495910362  C 18.7477742229687 13.4297495910362  18.9091400417892 13.2673221549864  18.9091400417892 13.0605963272868  L 18.9091400417892 0.43555470706616  Z " stroke-width="2" stroke="#697591" fill="none" transform="matrix(1 0 0 1 314 17 )" mask="url(#clip1172)" />
    <path d="M 0.733480994638815 0.804707970815059  L 18.1756590471504 0.804707970815059  L 18.1756590471504 9.76774921464445  L 0.733480994638815 9.76774921464445  L 0.733480994638815 0.804707970815059  Z " stroke-width="2" stroke="#697591" fill="none" transform="matrix(1 0 0 1 314 17 )" mask="url(#clip1172)" />
    <path d="M 18.1756590471504 12.6914430635379  L 0.733480994638815 12.6914430635379  L 0.733480994638815 10.5060557421427  L 18.1756590471504 10.5060557421427  L 18.1756590471504 12.6914430635379  Z " stroke-width="2" stroke="#697591" fill="none" transform="matrix(1 0 0 1 314 17 )" mask="url(#clip1172)" />
    <path d="M 6.96806944906899 14.9358949071324  L 11.9410705927202 14.9358949071324  C 12.1464452712191 14.9358949071324  12.3078110900396 14.7734674710831  12.3078110900396 14.5667416433835  C 12.3078110900396 14.360015815684  12.1464452712191 14.1975883796341  11.9410705927202 14.1975883796341  L 6.96806944906899 14.1975883796341  C 6.76269477057008 14.1975883796341  6.60132895174958 14.360015815684  6.60132895174958 14.5667416433835  C 6.60132895174958 14.7734674710831  6.76269477057008 14.9358949071324  6.96806944906899 14.9358949071324  Z " stroke-width="2" stroke="#697591" fill="none" transform="matrix(1 0 0 1 314 17 )" mask="url(#clip1172)" />
    <path d="M 15.1390477293454 16.0581208289302  C 15.1390477293454 15.8513950012306  14.9630122906323 15.6889675651808  14.772307232026 15.6889675651808  L 4.13683280976294 15.6889675651808  C 3.93145813126403 15.6889675651808  3.77009231244353 15.8513950012306  3.77009231244353 16.0581208289302  C 3.77009231244353 16.2648466566297  3.93145813126403 16.4272740926791  4.13683280976294 16.4272740926791  L 14.772307232026 16.4272740926791  C 14.9776819105249 16.4272740926791  15.1390477293454 16.2648466566297  15.1390477293454 16.0581208289302  Z " stroke-width="2" stroke="#697591" fill="none" transform="matrix(1 0 0 1 314 17 )" mask="url(#clip1172)" />
  </g>
</svg>