<?xml version="1.0" encoding="utf-8"?>
<svg version="1.1" xmlns:xlink="http://www.w3.org/1999/xlink" width="5px" height="4px" xmlns="http://www.w3.org/2000/svg">
  <defs>
    <mask fill="white" id="clip1176">
      <path d="M 0.6890625 3.0953125  C 0.61875 3.165625  0.534375 3.2078125  0.4359375 3.2078125  C 0.3515625 3.2078125  0.253125 3.1796875  0.1828125 3.109375  C 0.0421875 2.96875  0.0421875 2.74375  0.1828125 2.6171875  L 2.08125 0.676562500000001  C 2.2078125 0.550000000000001  2.41875 0.535937500000001  2.559375 0.6484375  L 4.6265625 2.35  C 4.78125 2.4765625  4.7953125 2.7015625  4.66875 2.8421875  C 4.5421875 2.996875  4.3171875 3.0109375  4.1765625 2.884375  L 2.3625 1.39375  L 0.6890625 3.0953125  Z " fill-rule="evenodd" />
    </mask>
  </defs>
  <g transform="matrix(1 0 0 1 -474 -25 )">
    <path d="M 0.6890625 3.0953125  C 0.61875 3.165625  0.534375 3.2078125  0.4359375 3.2078125  C 0.3515625 3.2078125  0.253125 3.1796875  0.1828125 3.109375  C 0.0421875 2.96875  0.0421875 2.74375  0.1828125 2.6171875  L 2.08125 0.676562500000001  C 2.2078125 0.550000000000001  2.41875 0.535937500000001  2.559375 0.6484375  L 4.6265625 2.35  C 4.78125 2.4765625  4.7953125 2.7015625  4.66875 2.8421875  C 4.5421875 2.996875  4.3171875 3.0109375  4.1765625 2.884375  L 2.3625 1.39375  L 0.6890625 3.0953125  Z " fill-rule="nonzero" fill="#000000" stroke="none" transform="matrix(1 0 0 1 474 25 )" />
    <path d="M 0.6890625 3.0953125  C 0.61875 3.165625  0.534375 3.2078125  0.4359375 3.2078125  C 0.3515625 3.2078125  0.253125 3.1796875  0.1828125 3.109375  C 0.0421875 2.96875  0.0421875 2.74375  0.1828125 2.6171875  L 2.08125 0.676562500000001  C 2.2078125 0.550000000000001  2.41875 0.535937500000001  2.559375 0.6484375  L 4.6265625 2.35  C 4.78125 2.4765625  4.7953125 2.7015625  4.66875 2.8421875  C 4.5421875 2.996875  4.3171875 3.0109375  4.1765625 2.884375  L 2.3625 1.39375  L 0.6890625 3.0953125  Z " stroke-width="2" stroke="#ffffff" fill="none" transform="matrix(1 0 0 1 474 25 )" mask="url(#clip1176)" />
  </g>
</svg>