<?xml version="1.0" encoding="utf-8"?>
<svg version="1.1" xmlns:xlink="http://www.w3.org/1999/xlink" width="18px" height="11px" xmlns="http://www.w3.org/2000/svg">
  <defs>
    <mask fill="white" id="clip1178">
      <path d="M 15.3645220588235 5.8125  C 14.203125 8.4421875  11.5080882352941 10.14375  8.48547794117647 10.14375  C 4.39080882352941 10.14375  1.05551470588235 6.99375  1.05551470588235 3.1265625  L 1.05551470588235 2.859375  C 1.05551470588235 2.6625  1.23419117647059 2.5078125  1.44264705882353 2.521875  C 1.65110294117647 2.521875  1.81488970588235 2.690625  1.8 2.8875  L 1.8 3.1265625  C 1.8 6.6140625  4.80772058823529 9.440625  8.48547794117647 9.440625  C 11.1954044117647 9.440625  13.6224264705882 7.9078125  14.6647058823529 5.5453125  C 14.7391544117647 5.3625  14.9625 5.278125  15.1560661764706 5.3484375  C 15.3496323529412 5.41875  15.4389705882353 5.6296875  15.3645220588235 5.8125  Z M 15.7814338235294 3.50625  C 15.721875 3.5625  15.6176470588235 3.590625  15.5283088235294 3.590625  C 15.4389705882353 3.590625  15.3645220588235 3.5625  15.2900735294118 3.50625  L 13.1012867647059 1.81875  C 12.9375 1.6921875  12.9226102941176 1.4671875  13.0566176470588 1.3265625  C 13.190625 1.171875  13.4288602941176 1.1578125  13.5777573529412 1.284375  L 15.4985294117647 2.775  L 17.2704044117647 1.0734375  C 17.4193014705882 0.932812500000002  17.6575367647059 0.932812500000002  17.7915441176471 1.0734375  C 17.9404411764706 1.2140625  17.9404411764706 1.4390625  17.7915441176471 1.565625  L 15.7814338235294 3.50625  Z " fill-rule="evenodd" />
    </mask>
  </defs>
  <g transform="matrix(1 0 0 1 -475 -23 )">
    <path d="M 15.3645220588235 5.8125  C 14.203125 8.4421875  11.5080882352941 10.14375  8.48547794117647 10.14375  C 4.39080882352941 10.14375  1.05551470588235 6.99375  1.05551470588235 3.1265625  L 1.05551470588235 2.859375  C 1.05551470588235 2.6625  1.23419117647059 2.5078125  1.44264705882353 2.521875  C 1.65110294117647 2.521875  1.81488970588235 2.690625  1.8 2.8875  L 1.8 3.1265625  C 1.8 6.6140625  4.80772058823529 9.440625  8.48547794117647 9.440625  C 11.1954044117647 9.440625  13.6224264705882 7.9078125  14.6647058823529 5.5453125  C 14.7391544117647 5.3625  14.9625 5.278125  15.1560661764706 5.3484375  C 15.3496323529412 5.41875  15.4389705882353 5.6296875  15.3645220588235 5.8125  Z M 15.7814338235294 3.50625  C 15.721875 3.5625  15.6176470588235 3.590625  15.5283088235294 3.590625  C 15.4389705882353 3.590625  15.3645220588235 3.5625  15.2900735294118 3.50625  L 13.1012867647059 1.81875  C 12.9375 1.6921875  12.9226102941176 1.4671875  13.0566176470588 1.3265625  C 13.190625 1.171875  13.4288602941176 1.1578125  13.5777573529412 1.284375  L 15.4985294117647 2.775  L 17.2704044117647 1.0734375  C 17.4193014705882 0.932812500000002  17.6575367647059 0.932812500000002  17.7915441176471 1.0734375  C 17.9404411764706 1.2140625  17.9404411764706 1.4390625  17.7915441176471 1.565625  L 15.7814338235294 3.50625  Z " fill-rule="nonzero" fill="#000000" stroke="none" transform="matrix(1 0 0 1 475 23 )" />
    <path d="M 15.3645220588235 5.8125  C 14.203125 8.4421875  11.5080882352941 10.14375  8.48547794117647 10.14375  C 4.39080882352941 10.14375  1.05551470588235 6.99375  1.05551470588235 3.1265625  L 1.05551470588235 2.859375  C 1.05551470588235 2.6625  1.23419117647059 2.5078125  1.44264705882353 2.521875  C 1.65110294117647 2.521875  1.81488970588235 2.690625  1.8 2.8875  L 1.8 3.1265625  C 1.8 6.6140625  4.80772058823529 9.440625  8.48547794117647 9.440625  C 11.1954044117647 9.440625  13.6224264705882 7.9078125  14.6647058823529 5.5453125  C 14.7391544117647 5.3625  14.9625 5.278125  15.1560661764706 5.3484375  C 15.3496323529412 5.41875  15.4389705882353 5.6296875  15.3645220588235 5.8125  Z " stroke-width="2" stroke="#ffffff" fill="none" transform="matrix(1 0 0 1 475 23 )" mask="url(#clip1178)" />
    <path d="M 15.7814338235294 3.50625  C 15.721875 3.5625  15.6176470588235 3.590625  15.5283088235294 3.590625  C 15.4389705882353 3.590625  15.3645220588235 3.5625  15.2900735294118 3.50625  L 13.1012867647059 1.81875  C 12.9375 1.6921875  12.9226102941176 1.4671875  13.0566176470588 1.3265625  C 13.190625 1.171875  13.4288602941176 1.1578125  13.5777573529412 1.284375  L 15.4985294117647 2.775  L 17.2704044117647 1.0734375  C 17.4193014705882 0.932812500000002  17.6575367647059 0.932812500000002  17.7915441176471 1.0734375  C 17.9404411764706 1.2140625  17.9404411764706 1.4390625  17.7915441176471 1.565625  L 15.7814338235294 3.50625  Z " stroke-width="2" stroke="#ffffff" fill="none" transform="matrix(1 0 0 1 475 23 )" mask="url(#clip1178)" />
  </g>
</svg>