<?xml version="1.0" encoding="utf-8"?>
<svg version="1.1" xmlns:xlink="http://www.w3.org/1999/xlink" width="16px" height="8px" xmlns="http://www.w3.org/2000/svg">
  <defs>
    <mask fill="white" id="clip1181">
      <path d="M 14.9666666666667 7.1125  C 14.9666666666667 7.309375  14.8016666666667 7.4640625  14.5916666666667 7.4640625  C 14.3816666666667 7.4640625  14.2166666666667 7.309375  14.2166666666667 7.1125  C 14.2166666666667 3.625  11.1866666666667 0.7984375  7.48166666666667 0.7984375  C 4.87166666666667 0.7984375  2.47166666666667 2.2328125  1.37666666666667 4.4546875  C 1.28666666666667 4.6375  1.06166666666666 4.7078125  0.881666666666665 4.6234375  C 0.701666666666665 4.5390625  0.611666666666665 4.328125  0.701666666666665 4.159375  C 1.91666666666667 1.6984375  4.58666666666667 0.0953124999999999  7.48166666666667 0.0953124999999999  C 11.6066666666667 0.0953124999999999  14.9666666666667 3.2453125  14.9666666666667 7.1125  Z " fill-rule="evenodd" />
    </mask>
  </defs>
  <g transform="matrix(1 0 0 1 -476 -19 )">
    <path d="M 14.9666666666667 7.1125  C 14.9666666666667 7.309375  14.8016666666667 7.4640625  14.5916666666667 7.4640625  C 14.3816666666667 7.4640625  14.2166666666667 7.309375  14.2166666666667 7.1125  C 14.2166666666667 3.625  11.1866666666667 0.7984375  7.48166666666667 0.7984375  C 4.87166666666667 0.7984375  2.47166666666667 2.2328125  1.37666666666667 4.4546875  C 1.28666666666667 4.6375  1.06166666666666 4.7078125  0.881666666666665 4.6234375  C 0.701666666666665 4.5390625  0.611666666666665 4.328125  0.701666666666665 4.159375  C 1.91666666666667 1.6984375  4.58666666666667 0.0953124999999999  7.48166666666667 0.0953124999999999  C 11.6066666666667 0.0953124999999999  14.9666666666667 3.2453125  14.9666666666667 7.1125  Z " fill-rule="nonzero" fill="#008cee" stroke="none" transform="matrix(1 0 0 1 476 19 )" />
    <path d="M 14.9666666666667 7.1125  C 14.9666666666667 7.309375  14.8016666666667 7.4640625  14.5916666666667 7.4640625  C 14.3816666666667 7.4640625  14.2166666666667 7.309375  14.2166666666667 7.1125  C 14.2166666666667 3.625  11.1866666666667 0.7984375  7.48166666666667 0.7984375  C 4.87166666666667 0.7984375  2.47166666666667 2.2328125  1.37666666666667 4.4546875  C 1.28666666666667 4.6375  1.06166666666666 4.7078125  0.881666666666665 4.6234375  C 0.701666666666665 4.5390625  0.611666666666665 4.328125  0.701666666666665 4.159375  C 1.91666666666667 1.6984375  4.58666666666667 0.0953124999999999  7.48166666666667 0.0953124999999999  C 11.6066666666667 0.0953124999999999  14.9666666666667 3.2453125  14.9666666666667 7.1125  Z " stroke-width="2" stroke="#008cee" fill="none" transform="matrix(1 0 0 1 476 19 )" mask="url(#clip1181)" />
  </g>
</svg>