<?xml version="1.0" encoding="utf-8"?>
<svg version="1.1" xmlns:xlink="http://www.w3.org/1999/xlink" width="18px" height="19px" xmlns="http://www.w3.org/2000/svg">
  <defs>
    <mask fill="white" id="clip1183">
      <path d="M 17.5625 18.24296875  C 17.5625 18.45078125  17.390625 18.6140625  17.171875 18.6140625  L 0.89062499999998 18.6140625  C 0.671874999999973 18.6140625  0.500000000000007 18.45078125  0.500000000000007 18.24296875  L 0.500000000000007 0.653124999999989  C 0.500000000000007 0.4453125  0.671874999999973 0.282031249999989  0.89062499999998 0.282031249999989  L 10.28125 0.282031249999989  C 10.5 0.282031249999989  10.671875 0.4453125  10.671875 0.653124999999989  C 10.671875 0.860937499999977  10.5 1.02421874999999  10.28125 1.02421874999999  L 1.28125000000001 1.02421874999999  L 1.28125000000001 17.871875  L 16.78125 17.871875  L 16.78125 7.89687500000002  C 16.78125 7.68906249999998  16.953125 7.52578125000002  17.171875 7.52578125000002  C 17.390625 7.52578125000002  17.5625 7.68906249999998  17.5625 7.89687500000002  L 17.5625 18.24296875  Z " fill-rule="evenodd" />
    </mask>
  </defs>
  <g transform="matrix(1 0 0 1 -553 -15 )">
    <path d="M 17.5625 18.24296875  C 17.5625 18.45078125  17.390625 18.6140625  17.171875 18.6140625  L 0.89062499999998 18.6140625  C 0.671874999999973 18.6140625  0.500000000000007 18.45078125  0.500000000000007 18.24296875  L 0.500000000000007 0.653124999999989  C 0.500000000000007 0.4453125  0.671874999999973 0.282031249999989  0.89062499999998 0.282031249999989  L 10.28125 0.282031249999989  C 10.5 0.282031249999989  10.671875 0.4453125  10.671875 0.653124999999989  C 10.671875 0.860937499999977  10.5 1.02421874999999  10.28125 1.02421874999999  L 1.28125000000001 1.02421874999999  L 1.28125000000001 17.871875  L 16.78125 17.871875  L 16.78125 7.89687500000002  C 16.78125 7.68906249999998  16.953125 7.52578125000002  17.171875 7.52578125000002  C 17.390625 7.52578125000002  17.5625 7.68906249999998  17.5625 7.89687500000002  L 17.5625 18.24296875  Z " fill-rule="nonzero" fill="#008cee" stroke="none" transform="matrix(1 0 0 1 553 15 )" />
    <path d="M 17.5625 18.24296875  C 17.5625 18.45078125  17.390625 18.6140625  17.171875 18.6140625  L 0.89062499999998 18.6140625  C 0.671874999999973 18.6140625  0.500000000000007 18.45078125  0.500000000000007 18.24296875  L 0.500000000000007 0.653124999999989  C 0.500000000000007 0.4453125  0.671874999999973 0.282031249999989  0.89062499999998 0.282031249999989  L 10.28125 0.282031249999989  C 10.5 0.282031249999989  10.671875 0.4453125  10.671875 0.653124999999989  C 10.671875 0.860937499999977  10.5 1.02421874999999  10.28125 1.02421874999999  L 1.28125000000001 1.02421874999999  L 1.28125000000001 17.871875  L 16.78125 17.871875  L 16.78125 7.89687500000002  C 16.78125 7.68906249999998  16.953125 7.52578125000002  17.171875 7.52578125000002  C 17.390625 7.52578125000002  17.5625 7.68906249999998  17.5625 7.89687500000002  L 17.5625 18.24296875  Z " stroke-width="2" stroke="#008cee" fill="none" transform="matrix(1 0 0 1 553 15 )" mask="url(#clip1183)" />
  </g>
</svg>