<?xml version="1.0" encoding="utf-8"?>
<svg version="1.1" xmlns:xlink="http://www.w3.org/1999/xlink" width="14px" height="13px" xmlns="http://www.w3.org/2000/svg">
  <defs>
    <mask fill="white" id="clip1185">
      <path d="M 3.73437500000002 12.0279017857143  C 3.65624999999999 12.0859375  3.56250000000001 12.1294642857143  3.45312500000001 12.1294642857143  C 3.34375000000001 12.1294642857143  3.25000000000003 12.0859375  3.171875 12.0279017857143  L 1.07812499999998 10.0691964285714  C 0.921874999999991 9.92410714285717  0.921874999999991 9.69196428571428  1.07812499999998 9.56138392857144  L 10.984375 0.319196428571445  C 11.0625 0.246651785714278  11.15625 0.217633928571445  11.265625 0.217633928571445  C 11.375 0.217633928571445  11.46875 0.261160714285722  11.546875 0.319196428571445  L 13.65625 2.26339285714283  C 13.8125 2.40848214285717  13.8125 2.640625  13.65625 2.77120535714283  L 3.73437500000002 12.0279017857143  Z M 11.265625 1.10267857142856  L 1.90624999999999 9.82254464285717  L 3.45312500000001 11.2589285714286  L 12.8125 2.5390625  L 11.265625 1.10267857142856  Z " fill-rule="evenodd" />
    </mask>
  </defs>
  <g transform="matrix(1 0 0 1 -558 -15 )">
    <path d="M 3.73437500000002 12.0279017857143  C 3.65624999999999 12.0859375  3.56250000000001 12.1294642857143  3.45312500000001 12.1294642857143  C 3.34375000000001 12.1294642857143  3.25000000000003 12.0859375  3.171875 12.0279017857143  L 1.07812499999998 10.0691964285714  C 0.921874999999991 9.92410714285717  0.921874999999991 9.69196428571428  1.07812499999998 9.56138392857144  L 10.984375 0.319196428571445  C 11.0625 0.246651785714278  11.15625 0.217633928571445  11.265625 0.217633928571445  C 11.375 0.217633928571445  11.46875 0.261160714285722  11.546875 0.319196428571445  L 13.65625 2.26339285714283  C 13.8125 2.40848214285717  13.8125 2.640625  13.65625 2.77120535714283  L 3.73437500000002 12.0279017857143  Z M 11.265625 1.10267857142856  L 1.90624999999999 9.82254464285717  L 3.45312500000001 11.2589285714286  L 12.8125 2.5390625  L 11.265625 1.10267857142856  Z " fill-rule="nonzero" fill="#008cee" stroke="none" transform="matrix(1 0 0 1 558 15 )" />
    <path d="M 3.73437500000002 12.0279017857143  C 3.65624999999999 12.0859375  3.56250000000001 12.1294642857143  3.45312500000001 12.1294642857143  C 3.34375000000001 12.1294642857143  3.25000000000003 12.0859375  3.171875 12.0279017857143  L 1.07812499999998 10.0691964285714  C 0.921874999999991 9.92410714285717  0.921874999999991 9.69196428571428  1.07812499999998 9.56138392857144  L 10.984375 0.319196428571445  C 11.0625 0.246651785714278  11.15625 0.217633928571445  11.265625 0.217633928571445  C 11.375 0.217633928571445  11.46875 0.261160714285722  11.546875 0.319196428571445  L 13.65625 2.26339285714283  C 13.8125 2.40848214285717  13.8125 2.640625  13.65625 2.77120535714283  L 3.73437500000002 12.0279017857143  Z " stroke-width="2" stroke="#008cee" fill="none" transform="matrix(1 0 0 1 558 15 )" mask="url(#clip1185)" />
    <path d="M 11.265625 1.10267857142856  L 1.90624999999999 9.82254464285717  L 3.45312500000001 11.2589285714286  L 12.8125 2.5390625  L 11.265625 1.10267857142856  Z " stroke-width="2" stroke="#008cee" fill="none" transform="matrix(1 0 0 1 558 15 )" mask="url(#clip1185)" />
  </g>
</svg>