<?xml version="1.0" encoding="utf-8"?>
<svg version="1.1" xmlns:xlink="http://www.w3.org/1999/xlink" width="5px" height="5px" xmlns="http://www.w3.org/2000/svg">
  <defs>
    <mask fill="white" id="clip1186">
      <path d="M 0.71875 4.65625  C 0.671875 4.671875  0.625 4.6875  0.578125 4.6875  C 0.46875 4.6875  0.375 4.640625  0.296875 4.5625  C 0.1875 4.453125  0.15625 4.265625  0.21875 4.125  L 1.984375 0.40625  C 2.03125 0.296875  2.140625 0.203125  2.265625 0.1875  C 2.390625 0.171875  2.515625 0.203125  2.609375 0.296875  L 4.71875 2.390625  C 4.8125 2.484375  4.84375 2.609375  4.828125 2.734375  C 4.796875 2.859375  4.71875 2.96875  4.59375 3.015625  L 0.71875 4.65625  Z M 3.75 2.53125  L 2.453125 1.234375  L 1.359375 3.53125  L 3.75 2.53125  Z " fill-rule="evenodd" />
    </mask>
  </defs>
  <g transform="matrix(1 0 0 1 -557 -24 )">
    <path d="M 0.71875 4.65625  C 0.671875 4.671875  0.625 4.6875  0.578125 4.6875  C 0.46875 4.6875  0.375 4.640625  0.296875 4.5625  C 0.1875 4.453125  0.15625 4.265625  0.21875 4.125  L 1.984375 0.40625  C 2.03125 0.296875  2.140625 0.203125  2.265625 0.1875  C 2.390625 0.171875  2.515625 0.203125  2.609375 0.296875  L 4.71875 2.390625  C 4.8125 2.484375  4.84375 2.609375  4.828125 2.734375  C 4.796875 2.859375  4.71875 2.96875  4.59375 3.015625  L 0.71875 4.65625  Z M 3.75 2.53125  L 2.453125 1.234375  L 1.359375 3.53125  L 3.75 2.53125  Z " fill-rule="nonzero" fill="#000000" stroke="none" transform="matrix(1 0 0 1 557 24 )" />
    <path d="M 0.71875 4.65625  C 0.671875 4.671875  0.625 4.6875  0.578125 4.6875  C 0.46875 4.6875  0.375 4.640625  0.296875 4.5625  C 0.1875 4.453125  0.15625 4.265625  0.21875 4.125  L 1.984375 0.40625  C 2.03125 0.296875  2.140625 0.203125  2.265625 0.1875  C 2.390625 0.171875  2.515625 0.203125  2.609375 0.296875  L 4.71875 2.390625  C 4.8125 2.484375  4.84375 2.609375  4.828125 2.734375  C 4.796875 2.859375  4.71875 2.96875  4.59375 3.015625  L 0.71875 4.65625  Z " stroke-width="2" stroke="#697591" fill="none" transform="matrix(1 0 0 1 557 24 )" mask="url(#clip1186)" />
    <path d="M 3.75 2.53125  L 2.453125 1.234375  L 1.359375 3.53125  L 3.75 2.53125  Z " stroke-width="2" stroke="#697591" fill="none" transform="matrix(1 0 0 1 557 24 )" mask="url(#clip1186)" />
  </g>
</svg>