<?xml version="1.0" encoding="utf-8"?>
<svg version="1.1" xmlns:xlink="http://www.w3.org/1999/xlink" width="18px" height="11px" xmlns="http://www.w3.org/2000/svg">
  <defs>
    <mask fill="white" id="clip1189">
      <path d="M 9.25040322580643 10.8865979381444  C 9.17782258064509 10.939755154639  9.08709677419347 10.9574742268042  8.99637096774185 10.9574742268042  C 8.90564516129023 10.9574742268042  8.83306451612912 10.939755154639  8.76048387096778 10.8865979381444  L 0.250403225806435 6.06701030927843  C 0.105241935483986 5.97841494845352  0.0145161290323652 5.83666237113403  0.0145161290323652 5.65947164948466  C 0.0145161290323652 5.5  0.105241935483986 5.34052835051534  0.250403225806435 5.25193298969089  L 8.76048387096778 0.148840206185469  C 8.92379032258074 0.0602448453610123  9.10524193548398 0.0602448453610123  9.26854838709671 0.148840206185469  L 17.7604838709678 5.25193298969089  C 17.9056451612902 5.34052835051534  17.9963709677418 5.5  17.9963709677418 5.65947164948466  C 17.9963709677418 5.81894329896886  17.9056451612902 5.97841494845352  17.7604838709678 6.06701030927843  L 9.25040322580643 10.8865979381444  Z M 8.99637096774185 1.10567010309296  L 1.4298387096775 5.64175257731949  L 8.99637096774185 9.92976804123691  L 16.5629032258064 5.64175257731949  L 8.99637096774185 1.10567010309296  Z " fill-rule="evenodd" />
    </mask>
  </defs>
  <g transform="matrix(1 0 0 1 -634 -17 )">
    <path d="M 9.25040322580643 10.8865979381444  C 9.17782258064509 10.939755154639  9.08709677419347 10.9574742268042  8.99637096774185 10.9574742268042  C 8.90564516129023 10.9574742268042  8.83306451612912 10.939755154639  8.76048387096778 10.8865979381444  L 0.250403225806435 6.06701030927843  C 0.105241935483986 5.97841494845352  0.0145161290323652 5.83666237113403  0.0145161290323652 5.65947164948466  C 0.0145161290323652 5.5  0.105241935483986 5.34052835051534  0.250403225806435 5.25193298969089  L 8.76048387096778 0.148840206185469  C 8.92379032258074 0.0602448453610123  9.10524193548398 0.0602448453610123  9.26854838709671 0.148840206185469  L 17.7604838709678 5.25193298969089  C 17.9056451612902 5.34052835051534  17.9963709677418 5.5  17.9963709677418 5.65947164948466  C 17.9963709677418 5.81894329896886  17.9056451612902 5.97841494845352  17.7604838709678 6.06701030927843  L 9.25040322580643 10.8865979381444  Z M 8.99637096774185 1.10567010309296  L 1.4298387096775 5.64175257731949  L 8.99637096774185 9.92976804123691  L 16.5629032258064 5.64175257731949  L 8.99637096774185 1.10567010309296  Z " fill-rule="nonzero" fill="#008cee" stroke="none" transform="matrix(1 0 0 1 634 17 )" />
    <path d="M 9.25040322580643 10.8865979381444  C 9.17782258064509 10.939755154639  9.08709677419347 10.9574742268042  8.99637096774185 10.9574742268042  C 8.90564516129023 10.9574742268042  8.83306451612912 10.939755154639  8.76048387096778 10.8865979381444  L 0.250403225806435 6.06701030927843  C 0.105241935483986 5.97841494845352  0.0145161290323652 5.83666237113403  0.0145161290323652 5.65947164948466  C 0.0145161290323652 5.5  0.105241935483986 5.34052835051534  0.250403225806435 5.25193298969089  L 8.76048387096778 0.148840206185469  C 8.92379032258074 0.0602448453610123  9.10524193548398 0.0602448453610123  9.26854838709671 0.148840206185469  L 17.7604838709678 5.25193298969089  C 17.9056451612902 5.34052835051534  17.9963709677418 5.5  17.9963709677418 5.65947164948466  C 17.9963709677418 5.81894329896886  17.9056451612902 5.97841494845352  17.7604838709678 6.06701030927843  L 9.25040322580643 10.8865979381444  Z " stroke-width="2" stroke="#008cee" fill="none" transform="matrix(1 0 0 1 634 17 )" mask="url(#clip1189)" />
    <path d="M 8.99637096774185 1.10567010309296  L 1.4298387096775 5.64175257731949  L 8.99637096774185 9.92976804123691  L 16.5629032258064 5.64175257731949  L 8.99637096774185 1.10567010309296  Z " stroke-width="2" stroke="#008cee" fill="none" transform="matrix(1 0 0 1 634 17 )" mask="url(#clip1189)" />
  </g>
</svg>