<?xml version="1.0" encoding="utf-8"?>
<svg version="1.1" xmlns:xlink="http://www.w3.org/1999/xlink" width="19px" height="6px" xmlns="http://www.w3.org/2000/svg">
  <defs>
    <mask fill="white" id="clip1190">
      <path d="M 9.74829545454553 5.86805555555566  C 9.67632575757566 5.90277777777783  9.58636363636356 5.92013888888869  9.49640151515146 5.92013888888869  C 9.40643939393936 5.92013888888869  9.33446969696973 5.90277777777783  9.2625000000001 5.85069444444434  L 0.338257575757628 0.868055555555657  C 0.104356060606026 0.746527777777828  0.0323863636363942 0.451388888888687  0.158333333333429 0.243055555555657  C 0.284280303030224 0.0173611111113132  0.590151515151458 -0.0520833333334849  0.806060606060593 0.0694444444443434  L 9.49640151515146 4.93055555555566  L 18.1867424242423 0.0694444444443434  C 18.4206439393939 -0.0520833333334849  18.7085227272727 0.0173611111113132  18.8344696969697 0.243055555555657  C 18.9604166666668 0.46875  18.8884469696969 0.746527777777828  18.6545454545455 0.868055555555657  L 9.74829545454553 5.86805555555566  Z " fill-rule="evenodd" />
    </mask>
  </defs>
  <g transform="matrix(1 0 0 1 -633 -25 )">
    <path d="M 9.74829545454553 5.86805555555566  C 9.67632575757566 5.90277777777783  9.58636363636356 5.92013888888869  9.49640151515146 5.92013888888869  C 9.40643939393936 5.92013888888869  9.33446969696973 5.90277777777783  9.2625000000001 5.85069444444434  L 0.338257575757628 0.868055555555657  C 0.104356060606026 0.746527777777828  0.0323863636363942 0.451388888888687  0.158333333333429 0.243055555555657  C 0.284280303030224 0.0173611111113132  0.590151515151458 -0.0520833333334849  0.806060606060593 0.0694444444443434  L 9.49640151515146 4.93055555555566  L 18.1867424242423 0.0694444444443434  C 18.4206439393939 -0.0520833333334849  18.7085227272727 0.0173611111113132  18.8344696969697 0.243055555555657  C 18.9604166666668 0.46875  18.8884469696969 0.746527777777828  18.6545454545455 0.868055555555657  L 9.74829545454553 5.86805555555566  Z " fill-rule="nonzero" fill="#000000" stroke="none" transform="matrix(1 0 0 1 633 25 )" />
    <path d="M 9.74829545454553 5.86805555555566  C 9.67632575757566 5.90277777777783  9.58636363636356 5.92013888888869  9.49640151515146 5.92013888888869  C 9.40643939393936 5.92013888888869  9.33446969696973 5.90277777777783  9.2625000000001 5.85069444444434  L 0.338257575757628 0.868055555555657  C 0.104356060606026 0.746527777777828  0.0323863636363942 0.451388888888687  0.158333333333429 0.243055555555657  C 0.284280303030224 0.0173611111113132  0.590151515151458 -0.0520833333334849  0.806060606060593 0.0694444444443434  L 9.49640151515146 4.93055555555566  L 18.1867424242423 0.0694444444443434  C 18.4206439393939 -0.0520833333334849  18.7085227272727 0.0173611111113132  18.8344696969697 0.243055555555657  C 18.9604166666668 0.46875  18.8884469696969 0.746527777777828  18.6545454545455 0.868055555555657  L 9.74829545454553 5.86805555555566  Z " stroke-width="2" stroke="#697591" fill="none" transform="matrix(1 0 0 1 633 25 )" mask="url(#clip1190)" />
  </g>
</svg>