<?xml version="1.0" encoding="utf-8"?>
<svg version="1.1" xmlns:xlink="http://www.w3.org/1999/xlink" width="19px" height="6px" xmlns="http://www.w3.org/2000/svg">
  <defs>
    <mask fill="white" id="clip1193">
      <path d="M 9.73030303030306 5.87847222222217  C 9.67632575757566 5.91319444444434  9.58636363636356 5.94791666666652  9.49640151515146 5.94791666666652  C 9.40643939393936 5.94791666666652  9.33446969696973 5.93055555555566  9.2625000000001 5.87847222222217  L 0.338257575757628 0.878472222222172  C 0.104356060606026 0.756944444444343  0.0323863636363942 0.461805555555657  0.158333333333429 0.253472222222172  C 0.284280303030224 0.0277777777778283  0.590151515151458 -0.0416666666665151  0.806060606060593 0.0798611111113132  L 9.49640151515146 4.94097222222217  L 18.1867424242423 0.0798611111113132  C 18.4206439393939 -0.0416666666665151  18.7085227272727 0.0277777777778283  18.8344696969697 0.253472222222172  C 18.9604166666668 0.479166666666515  18.8884469696969 0.756944444444343  18.6545454545455 0.878472222222172  L 9.73030303030306 5.87847222222217  Z " fill-rule="evenodd" />
    </mask>
  </defs>
  <g transform="matrix(1 0 0 1 -633 -28 )">
    <path d="M 9.73030303030306 5.87847222222217  C 9.67632575757566 5.91319444444434  9.58636363636356 5.94791666666652  9.49640151515146 5.94791666666652  C 9.40643939393936 5.94791666666652  9.33446969696973 5.93055555555566  9.2625000000001 5.87847222222217  L 0.338257575757628 0.878472222222172  C 0.104356060606026 0.756944444444343  0.0323863636363942 0.461805555555657  0.158333333333429 0.253472222222172  C 0.284280303030224 0.0277777777778283  0.590151515151458 -0.0416666666665151  0.806060606060593 0.0798611111113132  L 9.49640151515146 4.94097222222217  L 18.1867424242423 0.0798611111113132  C 18.4206439393939 -0.0416666666665151  18.7085227272727 0.0277777777778283  18.8344696969697 0.253472222222172  C 18.9604166666668 0.479166666666515  18.8884469696969 0.756944444444343  18.6545454545455 0.878472222222172  L 9.73030303030306 5.87847222222217  Z " fill-rule="nonzero" fill="#008cee" stroke="none" transform="matrix(1 0 0 1 633 28 )" />
    <path d="M 9.73030303030306 5.87847222222217  C 9.67632575757566 5.91319444444434  9.58636363636356 5.94791666666652  9.49640151515146 5.94791666666652  C 9.40643939393936 5.94791666666652  9.33446969696973 5.93055555555566  9.2625000000001 5.87847222222217  L 0.338257575757628 0.878472222222172  C 0.104356060606026 0.756944444444343  0.0323863636363942 0.461805555555657  0.158333333333429 0.253472222222172  C 0.284280303030224 0.0277777777778283  0.590151515151458 -0.0416666666665151  0.806060606060593 0.0798611111113132  L 9.49640151515146 4.94097222222217  L 18.1867424242423 0.0798611111113132  C 18.4206439393939 -0.0416666666665151  18.7085227272727 0.0277777777778283  18.8344696969697 0.253472222222172  C 18.9604166666668 0.479166666666515  18.8884469696969 0.756944444444343  18.6545454545455 0.878472222222172  L 9.73030303030306 5.87847222222217  Z " stroke-width="2" stroke="#008cee" fill="none" transform="matrix(1 0 0 1 633 28 )" mask="url(#clip1193)" />
  </g>
</svg>