<?xml version="1.0" encoding="utf-8"?>
<svg version="1.1" xmlns:xlink="http://www.w3.org/1999/xlink" width="20px" height="19px" xmlns="http://www.w3.org/2000/svg">
  <g transform="matrix(1 0 0 1 -709 -17 )">
    <path d="M 5 12.6666666666667  L 5 17.4166666666667  L 15 17.4166666666667  L 15 12.6666666666667  L 5 12.6666666666667  Z M 16.6666666666667 12.2708333333333  L 16.6666666666667 17.4166666666667  L 18 17.4166666666667  L 18 6.33333333333333  C 18.3333333333333 6.21788194444444  18.2899305555556 6.05913628472222  18.203125 5.85709635416667  C 18.1163194444444 5.65505642361111  18.0295138888889 5.51280381944444  17.9427083333333 5.43033854166667  L 14.2838541666667 1.95442708333333  C 14.1970486111111 1.87196180555555  14.0494791666667 1.78949652777778  13.8411458333333 1.70703125  C 13.6328125 1.62456597222222  13.4635416666667 1.58333333333333  13.3333333333333 1.58333333333333  L 13.3333333333333 6.72916666666667  C 13.3333333333333 7.05902777777778  13.2118055555556 7.33940972222222  12.96875 7.5703125  C 12.7256944444444 7.80121527777778  12.4305555555556 7.91666666666667  12.0833333333333 7.91666666666667  L 4.58333333333333 7.91666666666667  C 4.23611111111111 7.91666666666667  3.94097222222222 7.80121527777778  3.69791666666667 7.5703125  C 3.45486111111111 7.33940972222222  3.33333333333333 7.05902777777778  3.33333333333333 6.72916666666667  L 3.33333333333333 1.58333333333333  L 2 1.58333333333333  L 2 17.4166666666667  L 3.33333333333333 17.4166666666667  L 3.33333333333333 12.2708333333333  C 3.33333333333333 11.9409722222222  3.45486111111111 11.6605902777778  3.69791666666667 11.4296875  C 3.94097222222222 11.1987847222222  4.23611111111111 11.0833333333333  4.58333333333333 11  L 15.4166666666667 11  C 15.7638888888889 11.0833333333333  16.0590277777778 11.1987847222222  16.3020833333333 11.4296875  C 16.5451388888889 11.6605902777778  16.6666666666667 11.9409722222222  16.6666666666667 12.2708333333333  Z M 11.54296875 6.2158203125  C 11.6254340277778 6.13747829861111  11.6666666666667 6.04470486111111  11.6666666666667 5.9375  L 11.6666666666667 1.97916666666667  C 11.6666666666667 1.87196180555555  11.6254340277778 1.77918836805555  11.54296875 1.70084635416667  C 11.4605034722222 1.62250434027778  11.3628472222222 1.58333333333333  11.25 1.58333333333333  L 8.75 1.58333333333333  C 8.63715277777778 1.58333333333333  8.53949652777778 1.62250434027778  8.45703125 1.70084635416667  C 8.37456597222222 1.77918836805555  8.33333333333333 1.87196180555555  8.33333333333333 1.97916666666667  L 8.33333333333333 5.9375  C 8.33333333333333 6.04470486111111  8.37456597222222 6.13747829861111  8.45703125 6.2158203125  C 8.53949652777778 6.29416232638889  8.63715277777778 6.33333333333333  8.75 6.33333333333333  L 11.25 6.33333333333333  C 11.3628472222222 6.33333333333333  11.4605034722222 6.29416232638889  11.54296875 6.2158203125  Z M 19.7395833333333 5.24479166666667  C 19.9131944444444 5.640625  20 6.00347222222222  20 6.33333333333333  L 20 17.8125  C 20 18.1423611111111  19.8784722222222 18.4227430555556  19.6354166666667 18.6536458333333  C 19.3923611111111 18.8845486111111  19.0972222222222 19  18.75 19  L 1.25 19  C 0.902777777777778 19  0.607638888888889 18.8845486111111  0.364583333333333 18.6536458333333  C 0.121527777777778 18.4227430555556  0 18.1423611111111  0 17.8125  L 0 1.1875  C 0 0.857638888888888  0.121527777777778 0.577256944444442  0.364583333333333 0.346354166666666  C 0.607638888888889 0.115451388888888  0.902777777777778 0  1.25 0  L 13.3333333333333 0  C 13.6805555555556 0  14.0625 0.0824652777777759  14.4791666666667 0.247395833333334  C 14.8958333333333 0.412326388888888  15.2256944444444 0.610243055555554  15.46875 0.841145833333334  L 19.1145833333333 4.3046875  C 19.3576388888889 4.53559027777778  19.5659722222222 4.84895833333333  19.7395833333333 5.24479166666667  Z " fill-rule="nonzero" fill="#697591" stroke="none" transform="matrix(1 0 0 1 709 17 )" />
  </g>
</svg>