<?xml version="1.0" encoding="utf-8"?>
<svg version="1.1" xmlns:xlink="http://www.w3.org/1999/xlink" width="20px" height="20px" xmlns="http://www.w3.org/2000/svg">
  <g transform="matrix(1 0 0 1 -789 -16 )">
    <path d="M 4.23177083333333 8.09151785714286  C 6.01996527777778 8.41145833333334  7.94270833333333 8.57142857142857  10 8.57142857142857  C 12.0572916666667 8.57142857142857  13.9800347222222 8.41145833333334  15.7682291666667 8.09151785714286  C 17.5564236111111 7.77157738095238  18.9670138888889 7.29910714285714  20 6.67410714285714  L 20 8.57142857142857  C 20 9.08482142857143  19.5529513888889 9.56101190476191  18.6588541666667 10  C 17.7647569444444 10.4389880952381  16.5494791666667 10.7868303571429  15.0130208333333 11.0435267857143  C 13.4765625 11.3002232142857  11.8055555555556 11.4285714285714  10 11.4285714285714  C 8.19444444444444 11.4285714285714  6.5234375 11.3002232142857  4.98697916666667 11.0435267857143  C 3.45052083333333 10.7868303571429  2.23524305555556 10.4389880952381  1.34114583333333 10  C 0.447048611111111 9.56101190476191  0 9.08482142857143  0 8.57142857142857  L 0 6.67410714285714  C 1.03298611111111 7.29910714285714  2.44357638888889 7.77157738095238  4.23177083333333 8.09151785714286  Z M 4.23177083333333 16.6629464285714  C 6.01996527777778 16.9828869047619  7.94270833333333 17.1428571428571  10 17.1428571428571  C 12.0572916666667 17.1428571428571  13.9800347222222 16.9828869047619  15.7682291666667 16.6629464285714  C 17.5564236111111 16.343005952381  18.9670138888889 15.8705357142857  20 15.2455357142857  L 20 17.1428571428571  C 20 17.65625  19.5529513888889 18.1324404761905  18.6588541666667 18.5714285714286  C 17.7647569444444 19.0104166666667  16.5494791666667 19.3582589285714  15.0130208333333 19.6149553571429  C 13.4765625 19.8716517857143  11.8055555555556 20  10 20  C 8.19444444444444 20  6.5234375 19.8716517857143  4.98697916666667 19.6149553571429  C 3.45052083333333 19.3582589285714  2.23524305555556 19.0104166666667  1.34114583333333 18.5714285714286  C 0.447048611111111 18.1324404761905  0 17.65625  0 17.1428571428571  L 0 15.2455357142857  C 1.03298611111111 15.8705357142857  2.44357638888889 16.343005952381  4.23177083333333 16.6629464285714  Z M 4.23177083333333 12.3772321428571  C 6.01996527777778 12.6971726190476  7.94270833333333 12.8571428571429  10 12.8571428571429  C 12.0572916666667 12.8571428571429  13.9800347222222 12.6971726190476  15.7682291666667 12.3772321428571  C 17.5564236111111 12.0572916666667  18.9670138888889 11.5848214285714  20 10.9598214285714  L 20 12.8571428571429  C 20 13.3705357142857  19.5529513888889 13.8467261904762  18.6588541666667 14.2857142857143  C 17.7647569444444 14.7247023809524  16.5494791666667 15.0725446428571  15.0130208333333 15.3292410714286  C 13.4765625 15.5859375  11.8055555555556 15.7142857142857  10 15.7142857142857  C 8.19444444444444 15.7142857142857  6.5234375 15.5859375  4.98697916666667 15.3292410714286  C 3.45052083333333 15.0725446428571  2.23524305555556 14.7247023809524  1.34114583333333 14.2857142857143  C 0.447048611111111 13.8467261904762  0 13.3705357142857  0 12.8571428571429  L 0 10.9598214285714  C 1.03298611111111 11.5848214285714  2.44357638888889 12.0572916666667  4.23177083333333 12.3772321428571  Z M 4.98697916666667 0.385044642857142  C 6.5234375 0.128348214285714  8.19444444444444 0  10 0  C 11.8055555555556 0  13.4765625 0.128348214285714  15.0130208333333 0.385044642857142  C 16.5494791666667 0.641741071428572  17.7647569444444 0.989583333333333  18.6588541666667 1.42857142857143  C 19.5529513888889 1.86755952380952  20 2.34375  20 2.85714285714286  L 20 4.28571428571429  C 20 4.79910714285714  19.5529513888889 5.27529761904762  18.6588541666667 5.71428571428571  C 17.7647569444444 6.15327380952381  16.5494791666667 6.50111607142857  15.0130208333333 6.7578125  C 13.4765625 7.01450892857143  11.8055555555556 7.14285714285714  10 7.14285714285714  C 8.19444444444444 7.14285714285714  6.5234375 7.01450892857143  4.98697916666667 6.7578125  C 3.45052083333333 6.50111607142857  2.23524305555556 6.15327380952381  1.34114583333333 5.71428571428571  C 0.447048611111111 5.27529761904762  0 4.79910714285714  0 4.28571428571429  L 0 2.85714285714286  C 0 2.34375  0.447048611111111 1.86755952380952  1.34114583333333 1.42857142857143  C 2.23524305555556 0.989583333333333  3.45052083333333 0.641741071428572  4.98697916666667 0.385044642857142  Z " fill-rule="nonzero" fill="#697591" stroke="none" transform="matrix(1 0 0 1 789 16 )" />
  </g>
</svg>