<?xml version="1.0" encoding="utf-8"?>
<svg version="1.1" xmlns:xlink="http://www.w3.org/1999/xlink" width="10px" height="10px" xmlns="http://www.w3.org/2000/svg">
  <defs>
    <mask fill="white" id="clip1197">
      <path d="M 0.0316455572587028 5.00034646183881  C 0.0316455572587028 7.71574648633471  2.26077634238152 9.9170131366435  5.01054851908624 9.9170131366435  C 7.76032069579095 9.9170131366435  9.98945148091377 7.71574648633471  9.98945148091377 5.00034646183881  C 9.98945148091377 2.28425351366529  7.76032069579095 0.0829868633565083  5.01054851908624 0.0829868633565083  C 2.26077634238152 0.0829868633565083  0.0316455572587028 2.28425351366529  0.0316455572587028 4.9996535381612  Z " fill-rule="evenodd" />
    </mask>
  </defs>
  <g transform="matrix(1 0 0 1 -871 -15 )">
    <path d="M 0.0316455572587028 5.00034646183881  C 0.0316455572587028 7.71574648633471  2.26077634238152 9.9170131366435  5.01054851908624 9.9170131366435  C 7.76032069579095 9.9170131366435  9.98945148091377 7.71574648633471  9.98945148091377 5.00034646183881  C 9.98945148091377 2.28425351366529  7.76032069579095 0.0829868633565083  5.01054851908624 0.0829868633565083  C 2.26077634238152 0.0829868633565083  0.0316455572587028 2.28425351366529  0.0316455572587028 4.9996535381612  Z " fill-rule="nonzero" fill="#e9edf2" stroke="none" transform="matrix(1 0 0 1 871 15 )" />
    <path d="M 0.0316455572587028 5.00034646183881  C 0.0316455572587028 7.71574648633471  2.26077634238152 9.9170131366435  5.01054851908624 9.9170131366435  C 7.76032069579095 9.9170131366435  9.98945148091377 7.71574648633471  9.98945148091377 5.00034646183881  C 9.98945148091377 2.28425351366529  7.76032069579095 0.0829868633565083  5.01054851908624 0.0829868633565083  C 2.26077634238152 0.0829868633565083  0.0316455572587028 2.28425351366529  0.0316455572587028 4.9996535381612  Z " stroke-width="2" stroke="#697591" fill="none" transform="matrix(1 0 0 1 871 15 )" mask="url(#clip1197)" />
  </g>
</svg>