<?xml version="1.0" encoding="utf-8"?>
<svg version="1.1" xmlns:xlink="http://www.w3.org/1999/xlink" width="18px" height="12px" xmlns="http://www.w3.org/2000/svg">
  <defs>
    <mask fill="white" id="clip1200">
      <path d="M 17.978571436942 1.71428571428571  C 17.9906704138409 1.32582041053731  17.7268253335104 0.978214990516612  17.3357142940848 0.867346946747449  L 14.4428571512277 0.0408163345025514  C 13.6204831742648 1.43467237897372  12.2139089946968 2.4291635466578  10.575 2.77551019610969  L 10.0821428487723 3.79591836734694  L 8.64642857142857 3.79591836734694  L 8.11071429408482 2.77551019610969  C 6.43787120805034 2.42710246169287  4.9801116010273 1.4574664419043  4.06071429408482 0.0816326450892853  L 0.728571420200894 0.948979591836735  C 0.325227837385441 1.02921223852776  0.032582346732163 1.36281965541431  0.0214285630580376 1.75510204878827  L 0.0214285630580376 11.0408163185587  C 0.0358280953878674 11.5006406142847  0.390981901263564 11.8859792786936  0.867857142857145 11.9591836654974  L 17.2392857226563 11.9591836654974  C 17.6678571595982 11.9591836654974  17.978571436942 11.4489795918367  17.978571436942 11.0408163185587  L 17.978571436942 1.71428571428571  Z M 10.8 8.15306123246173  L 9.36428572265625 10.2857142857143  L 7.92857142020089 8.15306123246173  L 8.67857142857143 4.69387755899235  L 10.0714285797991 4.69387755899235  L 10.8 8.15306123246173  Z " fill-rule="evenodd" />
    </mask>
  </defs>
  <g transform="matrix(1 0 0 1 -867 -24 )">
    <path d="M 17.978571436942 1.71428571428571  C 17.9906704138409 1.32582041053731  17.7268253335104 0.978214990516612  17.3357142940848 0.867346946747449  L 14.4428571512277 0.0408163345025514  C 13.6204831742648 1.43467237897372  12.2139089946968 2.4291635466578  10.575 2.77551019610969  L 10.0821428487723 3.79591836734694  L 8.64642857142857 3.79591836734694  L 8.11071429408482 2.77551019610969  C 6.43787120805034 2.42710246169287  4.9801116010273 1.4574664419043  4.06071429408482 0.0816326450892853  L 0.728571420200894 0.948979591836735  C 0.325227837385441 1.02921223852776  0.032582346732163 1.36281965541431  0.0214285630580376 1.75510204878827  L 0.0214285630580376 11.0408163185587  C 0.0358280953878674 11.5006406142847  0.390981901263564 11.8859792786936  0.867857142857145 11.9591836654974  L 17.2392857226563 11.9591836654974  C 17.6678571595982 11.9591836654974  17.978571436942 11.4489795918367  17.978571436942 11.0408163185587  L 17.978571436942 1.71428571428571  Z M 10.8 8.15306123246173  L 9.36428572265625 10.2857142857143  L 7.92857142020089 8.15306123246173  L 8.67857142857143 4.69387755899235  L 10.0714285797991 4.69387755899235  L 10.8 8.15306123246173  Z " fill-rule="nonzero" fill="#0082e5" stroke="none" transform="matrix(1 0 0 1 867 24 )" />
    <path d="M 17.978571436942 1.71428571428571  C 17.9906704138409 1.32582041053731  17.7268253335104 0.978214990516612  17.3357142940848 0.867346946747449  L 14.4428571512277 0.0408163345025514  C 13.6204831742648 1.43467237897372  12.2139089946968 2.4291635466578  10.575 2.77551019610969  L 10.0821428487723 3.79591836734694  L 8.64642857142857 3.79591836734694  L 8.11071429408482 2.77551019610969  C 6.43787120805034 2.42710246169287  4.9801116010273 1.4574664419043  4.06071429408482 0.0816326450892853  L 0.728571420200894 0.948979591836735  C 0.325227837385441 1.02921223852776  0.032582346732163 1.36281965541431  0.0214285630580376 1.75510204878827  L 0.0214285630580376 11.0408163185587  C 0.0358280953878674 11.5006406142847  0.390981901263564 11.8859792786936  0.867857142857145 11.9591836654974  L 17.2392857226563 11.9591836654974  C 17.6678571595982 11.9591836654974  17.978571436942 11.4489795918367  17.978571436942 11.0408163185587  L 17.978571436942 1.71428571428571  Z " stroke-width="2" stroke="#0082e5" fill="none" transform="matrix(1 0 0 1 867 24 )" mask="url(#clip1200)" />
    <path d="M 10.8 8.15306123246173  L 9.36428572265625 10.2857142857143  L 7.92857142020089 8.15306123246173  L 8.67857142857143 4.69387755899235  L 10.0714285797991 4.69387755899235  L 10.8 8.15306123246173  Z " stroke-width="2" stroke="#0082e5" fill="none" transform="matrix(1 0 0 1 867 24 )" mask="url(#clip1200)" />
  </g>
</svg>