<?xml version="1.0" encoding="utf-8"?>
<svg version="1.1" xmlns:xlink="http://www.w3.org/1999/xlink" width="26px" height="26px" xmlns="http://www.w3.org/2000/svg">
  <defs>
    <mask fill="white" id="clip1205">
      <path d="M 23.0337301688058 11.5684523809524  C 23.0266227596453 17.8976041328032  17.8976041328032 23.0266227596453  11.5684523809524 23.0337301688058  C 5.2363543061472 23.0337301688058  0.103174593098955 17.9005504557576  0.103174593098955 11.5684523809524  C 0.103174593098955 5.2363543061472  5.2363543061472 0.10317459309896  11.5684523809524 0.10317459309896  C 17.9005504557576 0.10317459309896  23.0337301688058 5.2363543061472  23.0337301688058 11.5684523809524  Z M 20.1706349307106 11.5684523809524  C 20.1706349307106 6.81759814346037  16.3193066184444 2.9662698311942  11.5684523809524 2.9662698311942  C 6.81759814346036 2.9662698311942  2.96626983119419 6.81759814346037  2.96626983119419 11.5684523809524  C 2.96626983119419 16.3193066184444  6.81759814346036 20.1706349307106  11.5684523809524 20.1706349307106  C 16.3193066184444 20.1706349307106  20.1706349307106 16.3193066184444  20.1706349307106 11.5684523809524  Z M 25.5099206449963 25.4454364978609  C 25.2372698916052 25.7312549841434  24.8602758917117 25.894153633345  24.4652777878534 25.896825406901  C 24.0972825903173 25.8978621753034  23.7425191812199 25.7596426680702  23.4722222121466 25.5099206449963  L 20.8928571428571 23.1498015973772  C 20.608335297838 22.8794174864117  20.4472487363876 22.5041122355065  20.4472487363876 22.1116071428571  C 20.4472487363876 21.3206163364935  21.0884734793507 20.6793915935305  21.8794642857143 20.6793915935305  C 22.2466855814501 20.6793915935305  22.5998774796272 20.8204457703668  22.8660714285714 21.0734126883371  L 25.4454364978609 23.4206349307106  C 25.7342602739887 23.6912776651337  25.8981392343868 24.0694245474852  25.8981392343868 24.4652359462003  C 25.8981392343868 24.8294588663377  25.7593091407025 25.1799864766463  25.5099206449963 25.4454364978609  Z " fill-rule="evenodd" />
    </mask>
  </defs>
  <g transform="matrix(1 0 0 1 -659 -215 )">
    <path d="M 23.0337301688058 11.5684523809524  C 23.0266227596453 17.8976041328032  17.8976041328032 23.0266227596453  11.5684523809524 23.0337301688058  C 5.2363543061472 23.0337301688058  0.103174593098955 17.9005504557576  0.103174593098955 11.5684523809524  C 0.103174593098955 5.2363543061472  5.2363543061472 0.10317459309896  11.5684523809524 0.10317459309896  C 17.9005504557576 0.10317459309896  23.0337301688058 5.2363543061472  23.0337301688058 11.5684523809524  Z M 20.1706349307106 11.5684523809524  C 20.1706349307106 6.81759814346037  16.3193066184444 2.9662698311942  11.5684523809524 2.9662698311942  C 6.81759814346036 2.9662698311942  2.96626983119419 6.81759814346037  2.96626983119419 11.5684523809524  C 2.96626983119419 16.3193066184444  6.81759814346036 20.1706349307106  11.5684523809524 20.1706349307106  C 16.3193066184444 20.1706349307106  20.1706349307106 16.3193066184444  20.1706349307106 11.5684523809524  Z M 25.5099206449963 25.4454364978609  C 25.2372698916052 25.7312549841434  24.8602758917117 25.894153633345  24.4652777878534 25.896825406901  C 24.0972825903173 25.8978621753034  23.7425191812199 25.7596426680702  23.4722222121466 25.5099206449963  L 20.8928571428571 23.1498015973772  C 20.608335297838 22.8794174864117  20.4472487363876 22.5041122355065  20.4472487363876 22.1116071428571  C 20.4472487363876 21.3206163364935  21.0884734793507 20.6793915935305  21.8794642857143 20.6793915935305  C 22.2466855814501 20.6793915935305  22.5998774796272 20.8204457703668  22.8660714285714 21.0734126883371  L 25.4454364978609 23.4206349307106  C 25.7342602739887 23.6912776651337  25.8981392343868 24.0694245474852  25.8981392343868 24.4652359462003  C 25.8981392343868 24.8294588663377  25.7593091407025 25.1799864766463  25.5099206449963 25.4454364978609  Z " fill-rule="nonzero" fill="#e9edf2" stroke="none" transform="matrix(1 0 0 1 659 215 )" />
    <path d="M 23.0337301688058 11.5684523809524  C 23.0266227596453 17.8976041328032  17.8976041328032 23.0266227596453  11.5684523809524 23.0337301688058  C 5.2363543061472 23.0337301688058  0.103174593098955 17.9005504557576  0.103174593098955 11.5684523809524  C 0.103174593098955 5.2363543061472  5.2363543061472 0.10317459309896  11.5684523809524 0.10317459309896  C 17.9005504557576 0.10317459309896  23.0337301688058 5.2363543061472  23.0337301688058 11.5684523809524  Z " stroke-width="2" stroke="#008cee" fill="none" transform="matrix(1 0 0 1 659 215 )" mask="url(#clip1205)" />
    <path d="M 20.1706349307106 11.5684523809524  C 20.1706349307106 6.81759814346037  16.3193066184444 2.9662698311942  11.5684523809524 2.9662698311942  C 6.81759814346036 2.9662698311942  2.96626983119419 6.81759814346037  2.96626983119419 11.5684523809524  C 2.96626983119419 16.3193066184444  6.81759814346036 20.1706349307106  11.5684523809524 20.1706349307106  C 16.3193066184444 20.1706349307106  20.1706349307106 16.3193066184444  20.1706349307106 11.5684523809524  Z " stroke-width="2" stroke="#008cee" fill="none" transform="matrix(1 0 0 1 659 215 )" mask="url(#clip1205)" />
    <path d="M 25.5099206449963 25.4454364978609  C 25.2372698916052 25.7312549841434  24.8602758917117 25.894153633345  24.4652777878534 25.896825406901  C 24.0972825903173 25.8978621753034  23.7425191812199 25.7596426680702  23.4722222121466 25.5099206449963  L 20.8928571428571 23.1498015973772  C 20.608335297838 22.8794174864117  20.4472487363876 22.5041122355065  20.4472487363876 22.1116071428571  C 20.4472487363876 21.3206163364935  21.0884734793507 20.6793915935305  21.8794642857143 20.6793915935305  C 22.2466855814501 20.6793915935305  22.5998774796272 20.8204457703668  22.8660714285714 21.0734126883371  L 25.4454364978609 23.4206349307106  C 25.7342602739887 23.6912776651337  25.8981392343868 24.0694245474852  25.8981392343868 24.4652359462003  C 25.8981392343868 24.8294588663377  25.7593091407025 25.1799864766463  25.5099206449963 25.4454364978609  Z " stroke-width="2" stroke="#008cee" fill="none" transform="matrix(1 0 0 1 659 215 )" mask="url(#clip1205)" />
  </g>
</svg>