<?xml version="1.0" encoding="utf-8"?>
<svg version="1.1" xmlns:xlink="http://www.w3.org/1999/xlink" width="19px" height="18px" xmlns="http://www.w3.org/2000/svg">
  <defs>
    <mask fill="white" id="clip1171">
      <path d="M 7.14967105263157 5.61222299168949  C 7.13486842105256 6.28535318559543  6.54276315789467 6.84629501385029  5.81743421052636 6.84629501385029  L 1.40625000000006 6.84629501385029  C 0.680921052631504 6.84629501385029  0.0888157894736171 6.28535318559543  0.0888157894736171 5.59819944598334  L 0.0888157894736171 1.43320637119095  C 0.0888157894736171 0.746052631578863  0.680921052631504 0.185110803323994  1.40625000000006 0.185110803323994  L 5.83223684210537 0.185110803323994  C 6.55756578947369 0.185110803323994  7.14967105263157 0.746052631578863  7.14967105263157 1.43320637119095  L 7.14967105263157 5.61222299168949  Z M 5.83223684210537 0.886288088642686  L 1.40625000000006 0.886288088642686  C 1.09539473684204 0.886288088642686  0.828947368421066 1.12468836565097  0.828947368421066 1.43320637119095  L 0.828947368421066 5.61222299168949  C 0.828947368421066 5.90671745152332  1.08059210526314 6.15914127423821  1.40625000000006 6.15914127423821  L 5.83223684210537 6.15914127423821  C 6.14309210526315 6.15914127423821  6.40953947368412 5.92074099722993  6.40953947368412 5.61222299168949  L 6.40953947368412 1.43320637119095  C 6.40953947368412 1.13871191135715  6.15789473684205 0.886288088642686  5.83223684210537 0.886288088642686  Z M 17.985197368421 5.59819944598334  C 17.9703947368421 6.28535318559543  17.3782894736842 6.84629501385029  16.6529605263159 6.84629501385029  L 12.2417763157895 6.84629501385029  C 11.5164473684211 6.84629501385029  10.9243421052632 6.28535318559543  10.9243421052632 5.59819944598334  L 10.9243421052632 1.4191828254848  C 10.9243421052632 0.732029085872682  11.5164473684211 0.171087257617813  12.2417763157895 0.171087257617813  L 16.6677631578948 0.171087257617813  C 17.3930921052631 0.171087257617813  17.985197368421 0.732029085872682  17.985197368421 1.4191828254848  L 17.985197368421 5.59819944598334  Z M 12.2417763157895 0.87226454293608  L 12.2417763157895 0.886288088642686  C 11.9309210526316 0.886288088642686  11.6644736842105 1.12468836565097  11.6644736842105 1.43320637119095  L 11.6644736842105 5.61222299168949  C 11.6644736842105 5.90671745152332  11.9161184210526 6.15914127423821  12.2417763157895 6.15914127423821  L 16.6677631578948 6.15914127423821  C 16.9786184210526 6.15914127423821  17.2450657894737 5.92074099722993  17.2450657894737 5.61222299168949  L 17.2450657894737 1.4191828254848  C 17.2450657894737 1.12468836565097  16.9934210526316 0.87226454293608  16.6677631578948 0.87226454293608  L 12.2417763157895 0.87226454293608  Z M 7.13486842105256 15.7372229916895  C 7.12006578947366 16.424376731302  6.52796052631589 16.9853185595569  5.81743421052636 16.9853185595569  L 1.39144736842104 16.9853185595569  C 0.666118421052608 16.9853185595569  0.0740131578947209 16.424376731302  0.0740131578947209 15.7372229916895  L 0.0740131578947209 11.5582063711909  C 0.0740131578947209 10.8710526315789  0.666118421052608 10.310110803324  1.39144736842104 10.310110803324  L 5.81743421052636 10.310110803324  C 6.54276315789467 10.310110803324  7.13486842105256 10.8710526315789  7.13486842105256 11.5582063711909  L 7.13486842105256 15.7372229916895  Z M 1.39144736842104 11.0112880886427  L 1.39144736842104 11.0253116343488  C 1.08059210526314 11.0253116343488  0.81414473684205 11.2637119113571  0.81414473684205 11.5722299168976  L 0.81414473684205 15.7512465373961  C 0.81414473684205 16.0457409972299  1.06578947368412 16.2981648199444  1.39144736842104 16.2981648199444  L 5.81743421052636 16.2981648199444  C 6.12828947368414 16.2981648199444  6.39473684210535 16.0597645429361  6.39473684210535 15.7512465373961  L 6.39473684210535 11.5582063711909  C 6.39473684210535 11.2637119113571  6.14309210526315 11.0112880886427  5.81743421052636 11.0112880886427  L 1.39144736842104 11.0112880886427  Z M 17.5411184210527 8.62728531855939  C 17.5411184210527 8.82361495844873  17.3634868421053 8.97787396121873  17.171052631579 9  L 0.606907894736903 9  C 0.399671052631517 8.97787396121873  0.236842105263179 8.82361495844873  0.236842105263179 8.62728531855939  C 0.236842105263179 8.43095567867044  0.399671052631517 8.27669667590004  0.606907894736903 8.27669667590004  L 17.171052631579 8.27669667590004  C 17.3782894736842 8.27669667590004  17.5411184210527 8.43095567867044  17.5411184210527 8.62728531855939  Z M 9.25164473684215 6.73410664819926  C 9.25164473684215 6.9304362880886  9.08881578947369 7.0846952908586  8.88157894736843 7.0846952908586  C 8.67434210526316 7.0846952908586  8.5115131578947 6.9304362880886  8.5115131578947 6.73410664819926  L 8.5115131578947 0.381440443213336  C 8.5115131578947 0.185110803323994  8.67434210526316 0.0308518005539895  8.88157894736843 0.0308518005539895  C 9.08881578947369 0.0308518005539895  9.25164473684215 0.185110803323994  9.25164473684215 0.381440443213336  L 9.25164473684215 6.73410664819926  Z M 9.25164473684215 17.3218836565097  C 9.25164473684215 17.518213296399  9.08881578947369 17.672472299169  8.88157894736843 17.672472299169  C 8.67434210526316 17.672472299169  8.5115131578947 17.518213296399  8.5115131578947 17.3218836565097  L 8.5115131578947 10.9692174515233  C 8.5115131578947 10.7728878116344  8.67434210526316 10.6186288088644  8.88157894736843 10.6186288088644  C 9.08881578947369 10.6186288088644  9.25164473684215 10.7728878116344  9.25164473684215 10.9692174515233  L 9.25164473684215 17.3218836565097  Z M 11.9753289473684 15.8353878116344  C 11.9753289473684 16.0317174515233  11.8125000000001 16.1859764542938  11.6052631578947 16.1859764542938  C 11.3980263157895 16.1859764542938  11.2351973684211 16.0317174515233  11.2351973684211 15.8353878116344  L 11.2351973684211 11.5722299168976  C 11.2351973684211 11.3759002770082  11.3980263157895 11.2216412742382  11.6052631578947 11.2216412742382  C 11.8125000000001 11.2216412742382  11.9753289473684 11.3759002770082  11.9753289473684 11.5722299168976  L 11.9753289473684 15.8353878116344  Z M 14.2845394736841 15.8353878116344  C 14.2845394736841 16.0317174515233  14.1217105263159 16.1859764542938  13.9144736842105 16.1859764542938  C 13.7072368421054 16.1859764542938  13.5444078947369 16.0317174515233  13.5444078947369 15.8353878116344  L 13.5444078947369 11.5722299168976  C 13.5444078947369 11.3759002770082  13.7072368421054 11.2216412742382  13.9144736842105 11.2216412742382  C 14.1217105263159 11.2216412742382  14.2845394736841 11.3759002770082  14.2845394736841 11.5722299168976  L 14.2845394736841 15.8353878116344  Z M 16.7861842105263 16.9292243767314  C 16.7861842105263 17.1255540166203  16.623355263158 17.2798130193903  16.4161184210526 17.2798130193903  C 16.2088815789475 17.2798130193903  16.046052631579 17.1255540166203  16.046052631579 16.9292243767314  L 16.046052631579 10.4783933518006  C 16.046052631579 10.2820637119112  16.2088815789475 10.1278047091412  16.4161184210526 10.1278047091412  C 16.623355263158 10.1278047091412  16.7861842105263 10.2820637119112  16.7861842105263 10.4783933518006  L 16.7861842105263 16.9292243767314  Z " fill-rule="evenodd" />
    </mask>
  </defs>
  <g transform="matrix(1 0 0 1 -395 -16 )">
    <path d="M 7.14967105263157 5.61222299168949  C 7.13486842105256 6.28535318559543  6.54276315789467 6.84629501385029  5.81743421052636 6.84629501385029  L 1.40625000000006 6.84629501385029  C 0.680921052631504 6.84629501385029  0.0888157894736171 6.28535318559543  0.0888157894736171 5.59819944598334  L 0.0888157894736171 1.43320637119095  C 0.0888157894736171 0.746052631578863  0.680921052631504 0.185110803323994  1.40625000000006 0.185110803323994  L 5.83223684210537 0.185110803323994  C 6.55756578947369 0.185110803323994  7.14967105263157 0.746052631578863  7.14967105263157 1.43320637119095  L 7.14967105263157 5.61222299168949  Z M 5.83223684210537 0.886288088642686  L 1.40625000000006 0.886288088642686  C 1.09539473684204 0.886288088642686  0.828947368421066 1.12468836565097  0.828947368421066 1.43320637119095  L 0.828947368421066 5.61222299168949  C 0.828947368421066 5.90671745152332  1.08059210526314 6.15914127423821  1.40625000000006 6.15914127423821  L 5.83223684210537 6.15914127423821  C 6.14309210526315 6.15914127423821  6.40953947368412 5.92074099722993  6.40953947368412 5.61222299168949  L 6.40953947368412 1.43320637119095  C 6.40953947368412 1.13871191135715  6.15789473684205 0.886288088642686  5.83223684210537 0.886288088642686  Z M 17.985197368421 5.59819944598334  C 17.9703947368421 6.28535318559543  17.3782894736842 6.84629501385029  16.6529605263159 6.84629501385029  L 12.2417763157895 6.84629501385029  C 11.5164473684211 6.84629501385029  10.9243421052632 6.28535318559543  10.9243421052632 5.59819944598334  L 10.9243421052632 1.4191828254848  C 10.9243421052632 0.732029085872682  11.5164473684211 0.171087257617813  12.2417763157895 0.171087257617813  L 16.6677631578948 0.171087257617813  C 17.3930921052631 0.171087257617813  17.985197368421 0.732029085872682  17.985197368421 1.4191828254848  L 17.985197368421 5.59819944598334  Z M 12.2417763157895 0.87226454293608  L 12.2417763157895 0.886288088642686  C 11.9309210526316 0.886288088642686  11.6644736842105 1.12468836565097  11.6644736842105 1.43320637119095  L 11.6644736842105 5.61222299168949  C 11.6644736842105 5.90671745152332  11.9161184210526 6.15914127423821  12.2417763157895 6.15914127423821  L 16.6677631578948 6.15914127423821  C 16.9786184210526 6.15914127423821  17.2450657894737 5.92074099722993  17.2450657894737 5.61222299168949  L 17.2450657894737 1.4191828254848  C 17.2450657894737 1.12468836565097  16.9934210526316 0.87226454293608  16.6677631578948 0.87226454293608  L 12.2417763157895 0.87226454293608  Z M 7.13486842105256 15.7372229916895  C 7.12006578947366 16.424376731302  6.52796052631589 16.9853185595569  5.81743421052636 16.9853185595569  L 1.39144736842104 16.9853185595569  C 0.666118421052608 16.9853185595569  0.0740131578947209 16.424376731302  0.0740131578947209 15.7372229916895  L 0.0740131578947209 11.5582063711909  C 0.0740131578947209 10.8710526315789  0.666118421052608 10.310110803324  1.39144736842104 10.310110803324  L 5.81743421052636 10.310110803324  C 6.54276315789467 10.310110803324  7.13486842105256 10.8710526315789  7.13486842105256 11.5582063711909  L 7.13486842105256 15.7372229916895  Z M 1.39144736842104 11.0112880886427  L 1.39144736842104 11.0253116343488  C 1.08059210526314 11.0253116343488  0.81414473684205 11.2637119113571  0.81414473684205 11.5722299168976  L 0.81414473684205 15.7512465373961  C 0.81414473684205 16.0457409972299  1.06578947368412 16.2981648199444  1.39144736842104 16.2981648199444  L 5.81743421052636 16.2981648199444  C 6.12828947368414 16.2981648199444  6.39473684210535 16.0597645429361  6.39473684210535 15.7512465373961  L 6.39473684210535 11.5582063711909  C 6.39473684210535 11.2637119113571  6.14309210526315 11.0112880886427  5.81743421052636 11.0112880886427  L 1.39144736842104 11.0112880886427  Z M 17.5411184210527 8.62728531855939  C 17.5411184210527 8.82361495844873  17.3634868421053 8.97787396121873  17.171052631579 9  L 0.606907894736903 9  C 0.399671052631517 8.97787396121873  0.236842105263179 8.82361495844873  0.236842105263179 8.62728531855939  C 0.236842105263179 8.43095567867044  0.399671052631517 8.27669667590004  0.606907894736903 8.27669667590004  L 17.171052631579 8.27669667590004  C 17.3782894736842 8.27669667590004  17.5411184210527 8.43095567867044  17.5411184210527 8.62728531855939  Z M 9.25164473684215 6.73410664819926  C 9.25164473684215 6.9304362880886  9.08881578947369 7.0846952908586  8.88157894736843 7.0846952908586  C 8.67434210526316 7.0846952908586  8.5115131578947 6.9304362880886  8.5115131578947 6.73410664819926  L 8.5115131578947 0.381440443213336  C 8.5115131578947 0.185110803323994  8.67434210526316 0.0308518005539895  8.88157894736843 0.0308518005539895  C 9.08881578947369 0.0308518005539895  9.25164473684215 0.185110803323994  9.25164473684215 0.381440443213336  L 9.25164473684215 6.73410664819926  Z M 9.25164473684215 17.3218836565097  C 9.25164473684215 17.518213296399  9.08881578947369 17.672472299169  8.88157894736843 17.672472299169  C 8.67434210526316 17.672472299169  8.5115131578947 17.518213296399  8.5115131578947 17.3218836565097  L 8.5115131578947 10.9692174515233  C 8.5115131578947 10.7728878116344  8.67434210526316 10.6186288088644  8.88157894736843 10.6186288088644  C 9.08881578947369 10.6186288088644  9.25164473684215 10.7728878116344  9.25164473684215 10.9692174515233  L 9.25164473684215 17.3218836565097  Z M 11.9753289473684 15.8353878116344  C 11.9753289473684 16.0317174515233  11.8125000000001 16.1859764542938  11.6052631578947 16.1859764542938  C 11.3980263157895 16.1859764542938  11.2351973684211 16.0317174515233  11.2351973684211 15.8353878116344  L 11.2351973684211 11.5722299168976  C 11.2351973684211 11.3759002770082  11.3980263157895 11.2216412742382  11.6052631578947 11.2216412742382  C 11.8125000000001 11.2216412742382  11.9753289473684 11.3759002770082  11.9753289473684 11.5722299168976  L 11.9753289473684 15.8353878116344  Z M 14.2845394736841 15.8353878116344  C 14.2845394736841 16.0317174515233  14.1217105263159 16.1859764542938  13.9144736842105 16.1859764542938  C 13.7072368421054 16.1859764542938  13.5444078947369 16.0317174515233  13.5444078947369 15.8353878116344  L 13.5444078947369 11.5722299168976  C 13.5444078947369 11.3759002770082  13.7072368421054 11.2216412742382  13.9144736842105 11.2216412742382  C 14.1217105263159 11.2216412742382  14.2845394736841 11.3759002770082  14.2845394736841 11.5722299168976  L 14.2845394736841 15.8353878116344  Z M 16.7861842105263 16.9292243767314  C 16.7861842105263 17.1255540166203  16.623355263158 17.2798130193903  16.4161184210526 17.2798130193903  C 16.2088815789475 17.2798130193903  16.046052631579 17.1255540166203  16.046052631579 16.9292243767314  L 16.046052631579 10.4783933518006  C 16.046052631579 10.2820637119112  16.2088815789475 10.1278047091412  16.4161184210526 10.1278047091412  C 16.623355263158 10.1278047091412  16.7861842105263 10.2820637119112  16.7861842105263 10.4783933518006  L 16.7861842105263 16.9292243767314  Z " fill-rule="nonzero" fill="#008cee" stroke="none" transform="matrix(1 0 0 1 395 16 )" />
    <path d="M 7.14967105263157 5.61222299168949  C 7.13486842105256 6.28535318559543  6.54276315789467 6.84629501385029  5.81743421052636 6.84629501385029  L 1.40625000000006 6.84629501385029  C 0.680921052631504 6.84629501385029  0.0888157894736171 6.28535318559543  0.0888157894736171 5.59819944598334  L 0.0888157894736171 1.43320637119095  C 0.0888157894736171 0.746052631578863  0.680921052631504 0.185110803323994  1.40625000000006 0.185110803323994  L 5.83223684210537 0.185110803323994  C 6.55756578947369 0.185110803323994  7.14967105263157 0.746052631578863  7.14967105263157 1.43320637119095  L 7.14967105263157 5.61222299168949  Z " stroke-width="2" stroke="#008cee" fill="none" transform="matrix(1 0 0 1 395 16 )" mask="url(#clip1171)" />
    <path d="M 5.83223684210537 0.886288088642686  L 1.40625000000006 0.886288088642686  C 1.09539473684204 0.886288088642686  0.828947368421066 1.12468836565097  0.828947368421066 1.43320637119095  L 0.828947368421066 5.61222299168949  C 0.828947368421066 5.90671745152332  1.08059210526314 6.15914127423821  1.40625000000006 6.15914127423821  L 5.83223684210537 6.15914127423821  C 6.14309210526315 6.15914127423821  6.40953947368412 5.92074099722993  6.40953947368412 5.61222299168949  L 6.40953947368412 1.43320637119095  C 6.40953947368412 1.13871191135715  6.15789473684205 0.886288088642686  5.83223684210537 0.886288088642686  Z " stroke-width="2" stroke="#008cee" fill="none" transform="matrix(1 0 0 1 395 16 )" mask="url(#clip1171)" />
    <path d="M 17.985197368421 5.59819944598334  C 17.9703947368421 6.28535318559543  17.3782894736842 6.84629501385029  16.6529605263159 6.84629501385029  L 12.2417763157895 6.84629501385029  C 11.5164473684211 6.84629501385029  10.9243421052632 6.28535318559543  10.9243421052632 5.59819944598334  L 10.9243421052632 1.4191828254848  C 10.9243421052632 0.732029085872682  11.5164473684211 0.171087257617813  12.2417763157895 0.171087257617813  L 16.6677631578948 0.171087257617813  C 17.3930921052631 0.171087257617813  17.985197368421 0.732029085872682  17.985197368421 1.4191828254848  L 17.985197368421 5.59819944598334  Z " stroke-width="2" stroke="#008cee" fill="none" transform="matrix(1 0 0 1 395 16 )" mask="url(#clip1171)" />
    <path d="M 12.2417763157895 0.87226454293608  L 12.2417763157895 0.886288088642686  C 11.9309210526316 0.886288088642686  11.6644736842105 1.12468836565097  11.6644736842105 1.43320637119095  L 11.6644736842105 5.61222299168949  C 11.6644736842105 5.90671745152332  11.9161184210526 6.15914127423821  12.2417763157895 6.15914127423821  L 16.6677631578948 6.15914127423821  C 16.9786184210526 6.15914127423821  17.2450657894737 5.92074099722993  17.2450657894737 5.61222299168949  L 17.2450657894737 1.4191828254848  C 17.2450657894737 1.12468836565097  16.9934210526316 0.87226454293608  16.6677631578948 0.87226454293608  L 12.2417763157895 0.87226454293608  Z " stroke-width="2" stroke="#008cee" fill="none" transform="matrix(1 0 0 1 395 16 )" mask="url(#clip1171)" />
    <path d="M 7.13486842105256 15.7372229916895  C 7.12006578947366 16.424376731302  6.52796052631589 16.9853185595569  5.81743421052636 16.9853185595569  L 1.39144736842104 16.9853185595569  C 0.666118421052608 16.9853185595569  0.0740131578947209 16.424376731302  0.0740131578947209 15.7372229916895  L 0.0740131578947209 11.5582063711909  C 0.0740131578947209 10.8710526315789  0.666118421052608 10.310110803324  1.39144736842104 10.310110803324  L 5.81743421052636 10.310110803324  C 6.54276315789467 10.310110803324  7.13486842105256 10.8710526315789  7.13486842105256 11.5582063711909  L 7.13486842105256 15.7372229916895  Z " stroke-width="2" stroke="#008cee" fill="none" transform="matrix(1 0 0 1 395 16 )" mask="url(#clip1171)" />
    <path d="M 1.39144736842104 11.0112880886427  L 1.39144736842104 11.0253116343488  C 1.08059210526314 11.0253116343488  0.81414473684205 11.2637119113571  0.81414473684205 11.5722299168976  L 0.81414473684205 15.7512465373961  C 0.81414473684205 16.0457409972299  1.06578947368412 16.2981648199444  1.39144736842104 16.2981648199444  L 5.81743421052636 16.2981648199444  C 6.12828947368414 16.2981648199444  6.39473684210535 16.0597645429361  6.39473684210535 15.7512465373961  L 6.39473684210535 11.5582063711909  C 6.39473684210535 11.2637119113571  6.14309210526315 11.0112880886427  5.81743421052636 11.0112880886427  L 1.39144736842104 11.0112880886427  Z " stroke-width="2" stroke="#008cee" fill="none" transform="matrix(1 0 0 1 395 16 )" mask="url(#clip1171)" />
    <path d="M 17.5411184210527 8.62728531855939  C 17.5411184210527 8.82361495844873  17.3634868421053 8.97787396121873  17.171052631579 9  L 0.606907894736903 9  C 0.399671052631517 8.97787396121873  0.236842105263179 8.82361495844873  0.236842105263179 8.62728531855939  C 0.236842105263179 8.43095567867044  0.399671052631517 8.27669667590004  0.606907894736903 8.27669667590004  L 17.171052631579 8.27669667590004  C 17.3782894736842 8.27669667590004  17.5411184210527 8.43095567867044  17.5411184210527 8.62728531855939  Z " stroke-width="2" stroke="#008cee" fill="none" transform="matrix(1 0 0 1 395 16 )" mask="url(#clip1171)" />
    <path d="M 9.25164473684215 6.73410664819926  C 9.25164473684215 6.9304362880886  9.08881578947369 7.0846952908586  8.88157894736843 7.0846952908586  C 8.67434210526316 7.0846952908586  8.5115131578947 6.9304362880886  8.5115131578947 6.73410664819926  L 8.5115131578947 0.381440443213336  C 8.5115131578947 0.185110803323994  8.67434210526316 0.0308518005539895  8.88157894736843 0.0308518005539895  C 9.08881578947369 0.0308518005539895  9.25164473684215 0.185110803323994  9.25164473684215 0.381440443213336  L 9.25164473684215 6.73410664819926  Z " stroke-width="2" stroke="#008cee" fill="none" transform="matrix(1 0 0 1 395 16 )" mask="url(#clip1171)" />
    <path d="M 9.25164473684215 17.3218836565097  C 9.25164473684215 17.518213296399  9.08881578947369 17.672472299169  8.88157894736843 17.672472299169  C 8.67434210526316 17.672472299169  8.5115131578947 17.518213296399  8.5115131578947 17.3218836565097  L 8.5115131578947 10.9692174515233  C 8.5115131578947 10.7728878116344  8.67434210526316 10.6186288088644  8.88157894736843 10.6186288088644  C 9.08881578947369 10.6186288088644  9.25164473684215 10.7728878116344  9.25164473684215 10.9692174515233  L 9.25164473684215 17.3218836565097  Z " stroke-width="2" stroke="#008cee" fill="none" transform="matrix(1 0 0 1 395 16 )" mask="url(#clip1171)" />
    <path d="M 11.9753289473684 15.8353878116344  C 11.9753289473684 16.0317174515233  11.8125000000001 16.1859764542938  11.6052631578947 16.1859764542938  C 11.3980263157895 16.1859764542938  11.2351973684211 16.0317174515233  11.2351973684211 15.8353878116344  L 11.2351973684211 11.5722299168976  C 11.2351973684211 11.3759002770082  11.3980263157895 11.2216412742382  11.6052631578947 11.2216412742382  C 11.8125000000001 11.2216412742382  11.9753289473684 11.3759002770082  11.9753289473684 11.5722299168976  L 11.9753289473684 15.8353878116344  Z " stroke-width="2" stroke="#008cee" fill="none" transform="matrix(1 0 0 1 395 16 )" mask="url(#clip1171)" />
    <path d="M 14.2845394736841 15.8353878116344  C 14.2845394736841 16.0317174515233  14.1217105263159 16.1859764542938  13.9144736842105 16.1859764542938  C 13.7072368421054 16.1859764542938  13.5444078947369 16.0317174515233  13.5444078947369 15.8353878116344  L 13.5444078947369 11.5722299168976  C 13.5444078947369 11.3759002770082  13.7072368421054 11.2216412742382  13.9144736842105 11.2216412742382  C 14.1217105263159 11.2216412742382  14.2845394736841 11.3759002770082  14.2845394736841 11.5722299168976  L 14.2845394736841 15.8353878116344  Z " stroke-width="2" stroke="#008cee" fill="none" transform="matrix(1 0 0 1 395 16 )" mask="url(#clip1171)" />
    <path d="M 16.7861842105263 16.9292243767314  C 16.7861842105263 17.1255540166203  16.623355263158 17.2798130193903  16.4161184210526 17.2798130193903  C 16.2088815789475 17.2798130193903  16.046052631579 17.1255540166203  16.046052631579 16.9292243767314  L 16.046052631579 10.4783933518006  C 16.046052631579 10.2820637119112  16.2088815789475 10.1278047091412  16.4161184210526 10.1278047091412  C 16.623355263158 10.1278047091412  16.7861842105263 10.2820637119112  16.7861842105263 10.4783933518006  L 16.7861842105263 16.9292243767314  Z " stroke-width="2" stroke="#008cee" fill="none" transform="matrix(1 0 0 1 395 16 )" mask="url(#clip1171)" />
  </g>
</svg>