<?xml version="1.0" encoding="utf-8"?>
<svg version="1.1" xmlns:xlink="http://www.w3.org/1999/xlink" width="17px" height="17px" xmlns="http://www.w3.org/2000/svg">
  <defs>
    <mask fill="white" id="clip1175">
      <path d="M 16.8757840092872 16.1737081792091  C 16.9975643983179 16.0463561383927  16.9975643983179 15.8425928890304  16.8622528549507 15.7279760522959  L 13.3847464106345 12.4550288105868  C 14.7649240682796 11.1305676658163  15.6173867406729 9.32216879783158  15.6173867406729 7.33547708864788  C 15.6173867406729 3.28568244579077  12.1263491420202 0  7.82344231704383 0  C 3.52053549206779 0  0.0294979103554276 3.28568244579077  0.0294979103554276 7.32274188456631  C 0.0294979103554276 11.3725365274234  3.52053550900848 14.6582189732142  7.82344231704383 14.658218989158  C 9.75839726861432 14.658218989158  11.5309783681442 13.9832532206631  12.8976248883927 12.8880257174744  L 16.3886624870457 16.1737081792091  C 16.4563182587293 16.2373841996171  16.5375051678092 16.2628546077806  16.6322232481665 16.2628545918367  C 16.7269413285235 16.2628545758928  16.8081282376036 16.2373841836734  16.8757840092872 16.1737081792091  Z M 7.82344231704383 14.0214588169641  C 3.89940779655614 14.0214588169641  0.7060555933116 11.0159508450254  0.7060555933116 7.32274188456631  C 0.7060555933116 3.62953294005092  3.89940781349641 0.62402496811228  7.82344231704383 0.62402496811228  C 11.7474768205916 0.62402496811228  14.9408290577167 3.62953294005092  14.9408290577167 7.32274188456631  C 14.9408290577167 11.0159508290815  11.7474768375319 14.0214588169641  7.82344231704383 14.0214588169641  Z " fill-rule="evenodd" />
    </mask>
  </defs>
  <g transform="matrix(1 0 0 1 -232 -18 )">
    <path d="M 16.8757840092872 16.1737081792091  C 16.9975643983179 16.0463561383927  16.9975643983179 15.8425928890304  16.8622528549507 15.7279760522959  L 13.3847464106345 12.4550288105868  C 14.7649240682796 11.1305676658163  15.6173867406729 9.32216879783158  15.6173867406729 7.33547708864788  C 15.6173867406729 3.28568244579077  12.1263491420202 0  7.82344231704383 0  C 3.52053549206779 0  0.0294979103554276 3.28568244579077  0.0294979103554276 7.32274188456631  C 0.0294979103554276 11.3725365274234  3.52053550900848 14.6582189732142  7.82344231704383 14.658218989158  C 9.75839726861432 14.658218989158  11.5309783681442 13.9832532206631  12.8976248883927 12.8880257174744  L 16.3886624870457 16.1737081792091  C 16.4563182587293 16.2373841996171  16.5375051678092 16.2628546077806  16.6322232481665 16.2628545918367  C 16.7269413285235 16.2628545758928  16.8081282376036 16.2373841836734  16.8757840092872 16.1737081792091  Z M 7.82344231704383 14.0214588169641  C 3.89940779655614 14.0214588169641  0.7060555933116 11.0159508450254  0.7060555933116 7.32274188456631  C 0.7060555933116 3.62953294005092  3.89940781349641 0.62402496811228  7.82344231704383 0.62402496811228  C 11.7474768205916 0.62402496811228  14.9408290577167 3.62953294005092  14.9408290577167 7.32274188456631  C 14.9408290577167 11.0159508290815  11.7474768375319 14.0214588169641  7.82344231704383 14.0214588169641  Z " fill-rule="nonzero" fill="#008cee" stroke="none" transform="matrix(1 0 0 1 232 18 )" />
    <path d="M 16.8757840092872 16.1737081792091  C 16.9975643983179 16.0463561383927  16.9975643983179 15.8425928890304  16.8622528549507 15.7279760522959  L 13.3847464106345 12.4550288105868  C 14.7649240682796 11.1305676658163  15.6173867406729 9.32216879783158  15.6173867406729 7.33547708864788  C 15.6173867406729 3.28568244579077  12.1263491420202 0  7.82344231704383 0  C 3.52053549206779 0  0.0294979103554276 3.28568244579077  0.0294979103554276 7.32274188456631  C 0.0294979103554276 11.3725365274234  3.52053550900848 14.6582189732142  7.82344231704383 14.658218989158  C 9.75839726861432 14.658218989158  11.5309783681442 13.9832532206631  12.8976248883927 12.8880257174744  L 16.3886624870457 16.1737081792091  C 16.4563182587293 16.2373841996171  16.5375051678092 16.2628546077806  16.6322232481665 16.2628545918367  C 16.7269413285235 16.2628545758928  16.8081282376036 16.2373841836734  16.8757840092872 16.1737081792091  Z " stroke-width="2" stroke="#008cee" fill="none" transform="matrix(1 0 0 1 232 18 )" mask="url(#clip1175)" />
    <path d="M 7.82344231704383 14.0214588169641  C 3.89940779655614 14.0214588169641  0.7060555933116 11.0159508450254  0.7060555933116 7.32274188456631  C 0.7060555933116 3.62953294005092  3.89940781349641 0.62402496811228  7.82344231704383 0.62402496811228  C 11.7474768205916 0.62402496811228  14.9408290577167 3.62953294005092  14.9408290577167 7.32274188456631  C 14.9408290577167 11.0159508290815  11.7474768375319 14.0214588169641  7.82344231704383 14.0214588169641  Z " stroke-width="2" stroke="#008cee" fill="none" transform="matrix(1 0 0 1 232 18 )" mask="url(#clip1175)" />
  </g>
</svg>